<svg width="115" height="27" viewBox="0 0 115 27" fill="none" xmlns="http://www.w3.org/2000/svg">
<path d="M5.66466 26V2.96L8.18466 5.48H0.624658V0.799998H11.4967V26H5.66466ZM28.4743 26.432C26.4103 26.432 24.5623 25.928 22.9303 24.92C21.2983 23.888 20.0143 22.4 19.0783 20.456C18.1423 18.512 17.6743 16.16 17.6743 13.4C17.6743 10.64 18.1423 8.288 19.0783 6.344C20.0143 4.4 21.2983 2.924 22.9303 1.916C24.5623 0.883999 26.4103 0.368 28.4743 0.368C30.5623 0.368 32.4103 0.883999 34.0183 1.916C35.6503 2.924 36.9343 4.4 37.8703 6.344C38.8063 8.288 39.2743 10.64 39.2743 13.4C39.2743 16.16 38.8063 18.512 37.8703 20.456C36.9343 22.4 35.6503 23.888 34.0183 24.92C32.4103 25.928 30.5623 26.432 28.4743 26.432ZM28.4743 21.5C29.4583 21.5 30.3103 21.224 31.0303 20.672C31.7743 20.12 32.3503 19.244 32.7583 18.044C33.1903 16.844 33.4063 15.296 33.4063 13.4C33.4063 11.504 33.1903 9.956 32.7583 8.756C32.3503 7.556 31.7743 6.68 31.0303 6.128C30.3103 5.576 29.4583 5.3 28.4743 5.3C27.5143 5.3 26.6623 5.576 25.9183 6.128C25.1983 6.68 24.6223 7.556 24.1903 8.756C23.7823 9.956 23.5783 11.504 23.5783 13.4C23.5783 15.296 23.7823 16.844 24.1903 18.044C24.6223 19.244 25.1983 20.12 25.9183 20.672C26.6623 21.224 27.5143 21.5 28.4743 21.5ZM54.7079 26.432C52.6439 26.432 50.7959 25.928 49.1639 24.92C47.5319 23.888 46.2479 22.4 45.3119 20.456C44.3759 18.512 43.9079 16.16 43.9079 13.4C43.9079 10.64 44.3759 8.288 45.3119 6.344C46.2479 4.4 47.5319 2.924 49.1639 1.916C50.7959 0.883999 52.6439 0.368 54.7079 0.368C56.7959 0.368 58.6439 0.883999 60.2519 1.916C61.8839 2.924 63.1679 4.4 64.1039 6.344C65.0399 8.288 65.5079 10.64 65.5079 13.4C65.5079 16.16 65.0399 18.512 64.1039 20.456C63.1679 22.4 61.8839 23.888 60.2519 24.92C58.6439 25.928 56.7959 26.432 54.7079 26.432ZM54.7079 21.5C55.6919 21.5 56.5439 21.224 57.2639 20.672C58.0079 20.12 58.5839 19.244 58.9919 18.044C59.4239 16.844 59.6399 15.296 59.6399 13.4C59.6399 11.504 59.4239 9.956 58.9919 8.756C58.5839 7.556 58.0079 6.68 57.2639 6.128C56.5439 5.576 55.6919 5.3 54.7079 5.3C53.7479 5.3 52.8959 5.576 52.1519 6.128C51.4319 6.68 50.8559 7.556 50.4239 8.756C50.0159 9.956 49.8119 11.504 49.8119 13.4C49.8119 15.296 50.0159 16.844 50.4239 18.044C50.8559 19.244 51.4319 20.12 52.1519 20.672C52.8959 21.224 53.7479 21.5 54.7079 21.5ZM80.9415 26.432C78.8775 26.432 77.0295 25.928 75.3975 24.92C73.7655 23.888 72.4815 22.4 71.5455 20.456C70.6095 18.512 70.1415 16.16 70.1415 13.4C70.1415 10.64 70.6095 8.288 71.5455 6.344C72.4815 4.4 73.7655 2.924 75.3975 1.916C77.0295 0.883999 78.8775 0.368 80.9415 0.368C83.0295 0.368 84.8775 0.883999 86.4855 1.916C88.1175 2.924 89.4015 4.4 90.3375 6.344C91.2735 8.288 91.7415 10.64 91.7415 13.4C91.7415 16.16 91.2735 18.512 90.3375 20.456C89.4015 22.4 88.1175 23.888 86.4855 24.92C84.8775 25.928 83.0295 26.432 80.9415 26.432ZM80.9415 21.5C81.9255 21.5 82.7775 21.224 83.4975 20.672C84.2415 20.12 84.8175 19.244 85.2255 18.044C85.6575 16.844 85.8735 15.296 85.8735 13.4C85.8735 11.504 85.6575 9.956 85.2255 8.756C84.8175 7.556 84.2415 6.68 83.4975 6.128C82.7775 5.576 81.9255 5.3 80.9415 5.3C79.9815 5.3 79.1295 5.576 78.3855 6.128C77.6655 6.68 77.0895 7.556 76.6575 8.756C76.2495 9.956 76.0455 11.504 76.0455 13.4C76.0455 15.296 76.2495 16.844 76.6575 18.044C77.0895 19.244 77.6655 20.12 78.3855 20.672C79.1295 21.224 79.9815 21.5 80.9415 21.5ZM103.537 21.716V5.084H108.181V21.716H103.537ZM97.3086 15.596V11.204H114.445V15.596H97.3086Z" fill="white"/>
</svg>
