<svg width="92" height="36" viewBox="0 0 92 36" fill="none" xmlns="http://www.w3.org/2000/svg">
<path d="M1.80119 35V29.96L14.7612 17.72C15.7852 16.792 16.5372 15.96 17.0172 15.224C17.4972 14.488 17.8172 13.816 17.9772 13.208C18.1692 12.6 18.2652 12.04 18.2652 11.528C18.2652 10.184 17.8012 9.16 16.8732 8.456C15.9772 7.72 14.6492 7.352 12.8892 7.352C11.4812 7.352 10.1692 7.624 8.95319 8.168C7.76919 8.712 6.76119 9.56 5.92919 10.712L0.265186 7.064C1.54519 5.144 3.33719 3.624 5.64119 2.504C7.94519 1.384 10.6012 0.823999 13.6092 0.823999C16.1052 0.823999 18.2812 1.24 20.1372 2.072C22.0252 2.872 23.4812 4.008 24.5052 5.48C25.5612 6.952 26.0892 8.712 26.0892 10.76C26.0892 11.848 25.9452 12.936 25.6572 14.024C25.4012 15.08 24.8572 16.2 24.0252 17.384C23.2252 18.568 22.0412 19.896 20.4732 21.368L9.72119 31.496L8.23319 28.664H27.1932V35H1.80119ZM47.2017 35.576C44.4497 35.576 41.9857 34.904 39.8097 33.56C37.6337 32.184 35.9217 30.2 34.6737 27.608C33.4257 25.016 32.8017 21.88 32.8017 18.2C32.8017 14.52 33.4257 11.384 34.6737 8.792C35.9217 6.2 37.6337 4.232 39.8097 2.888C41.9857 1.512 44.4497 0.823999 47.2017 0.823999C49.9857 0.823999 52.4497 1.512 54.5937 2.888C56.7697 4.232 58.4817 6.2 59.7297 8.792C60.9777 11.384 61.6017 14.52 61.6017 18.2C61.6017 21.88 60.9777 25.016 59.7297 27.608C58.4817 30.2 56.7697 32.184 54.5937 33.56C52.4497 34.904 49.9857 35.576 47.2017 35.576ZM47.2017 29C48.5137 29 49.6497 28.632 50.6097 27.896C51.6017 27.16 52.3697 25.992 52.9137 24.392C53.4897 22.792 53.7777 20.728 53.7777 18.2C53.7777 15.672 53.4897 13.608 52.9137 12.008C52.3697 10.408 51.6017 9.24 50.6097 8.504C49.6497 7.768 48.5137 7.4 47.2017 7.4C45.9217 7.4 44.7857 7.768 43.7937 8.504C42.8337 9.24 42.0657 10.408 41.4897 12.008C40.9457 13.608 40.6737 15.672 40.6737 18.2C40.6737 20.728 40.9457 22.792 41.4897 24.392C42.0657 25.992 42.8337 27.16 43.7937 27.896C44.7857 28.632 45.9217 29 47.2017 29ZM77.3284 29.288V7.112H83.5204V29.288H77.3284ZM69.0244 21.128V15.272H91.8724V21.128H69.0244Z" fill="white"/>
</svg>
