<svg width="34" height="27" viewBox="0 0 34 27" fill="none" xmlns="http://www.w3.org/2000/svg">
<path d="M10.4031 0.442816C5.51738 1.21597 2.36986 3.1918 0.784358 6.48077C-0.237411 8.5916 -0.2609 11.5738 0.713891 14.2246C1.1132 15.2923 1.97055 16.8508 2.73394 17.894C3.34465 18.7285 5.27075 20.8025 5.35296 20.7166C5.49389 20.5693 6.25728 8.3707 6.2103 7.1312L6.17507 6.22305L5.81099 6.59122C5.14156 7.22938 4.28421 7.60982 3.29767 7.69572C2.80441 7.73254 2.09974 7.73254 1.72392 7.68345C0.94878 7.573 0.960525 7.59755 1.536 6.32123C2.38161 4.48039 4.75399 2.48001 6.82102 1.87867C7.65487 1.6455 7.93674 1.71913 7.83104 2.14866C7.78406 2.32047 7.80755 2.45547 7.86627 2.45547C7.93674 2.45547 7.96023 2.54137 7.91325 2.65182C7.86627 2.79909 7.91325 2.82364 8.15989 2.75C8.89979 2.56592 9.59271 3.09362 10.0977 4.23495C10.2974 4.66447 10.9081 6.3335 11.4718 7.94117C12.5523 11.0461 13.1395 12.5924 13.5858 13.5251C13.8442 14.065 13.8677 14.2368 13.8677 16.1268C13.8677 17.2558 13.8207 18.1762 13.762 18.2253C13.6211 18.3112 12.5993 16.5931 11.9299 15.1573C11.4601 14.1264 10.6027 11.7947 9.79237 9.34021C9.24038 7.63436 9.05246 7.9289 9.05246 10.5061C9.05246 11.3406 8.982 13.5373 8.88804 15.3782C8.79409 17.2067 8.70013 19.7348 8.67664 20.9866L8.64141 23.2447L9.4048 23.6865C11.5305 24.9014 14.1731 25.9323 16.334 26.3987C17.6729 26.6932 19.9161 27 20.7147 27H21.2902L21.2197 25.4291C21.1728 24.5701 21.0905 22.7415 21.0318 21.3548C20.9614 19.968 20.8557 18.2621 20.7969 17.5504C20.6325 15.6604 20.3506 11.9297 20.2567 10.3343C20.2097 9.57338 20.1392 8.92295 20.0923 8.89841C19.9983 8.83705 19.5755 9.85564 18.5068 12.7028C17.8491 14.4332 16.98 16.3231 16.475 17.0717C15.9582 17.8817 15.1009 18.6549 14.7485 18.6549H14.4549V16.3231V13.9914L14.8425 13.3532C15.1948 12.7642 16.334 10.1134 16.334 9.86792C16.334 9.65929 17.6377 6.40714 18.037 5.62171C18.5772 4.5663 19.4816 3.53543 20.1627 3.17953C20.609 2.95863 20.8439 2.92181 21.5956 2.9709C22.6761 3.04453 23.4747 3.4127 24.1206 4.16131C25.1894 5.40081 25.4947 6.61576 26.6104 13.9914C26.8336 15.5132 27.2094 17.9431 27.4326 19.3912C27.644 20.8393 27.9493 22.8029 28.0903 23.7478C28.2312 24.6928 28.3604 25.4782 28.3721 25.5028C28.4308 25.5764 29.6405 24.9014 30.3217 24.4106C31.1203 23.846 32.4709 22.3488 32.976 21.4652C33.1874 21.097 33.5045 20.3852 33.6806 19.8821C33.986 19.023 34.0095 18.8389 33.9977 17.0595C33.9977 15.3168 33.9742 15.0714 33.6689 14.1141C33.3165 13.0096 32.4944 11.1933 32.0481 10.5306C29.3117 6.4685 25.5652 3.6336 20.5033 1.76822C18.037 0.860071 15.9465 0.479631 13.0456 0.430542C11.7889 0.405998 10.6027 0.41827 10.4031 0.442816Z" fill="#FB2963"/>
</svg>
